<?xml version="1.0" standalone="no"?><!DOCTYPE svg PUBLIC "-//W3C//DTD SVG 1.1//EN" "http://www.w3.org/Graphics/SVG/1.1/DTD/svg11.dtd"><svg t="1691389273508" class="icon" viewBox="0 0 1024 1024" version="1.1" xmlns="http://www.w3.org/2000/svg" p-id="3208" xmlns:xlink="http://www.w3.org/1999/xlink" width="200" height="200"><path d="M810.666667 128a85.333333 85.333333 0 0 1 85.333333 85.333333v597.333334a85.333333 85.333333 0 0 1-85.333333 85.333333H213.333333a85.333333 85.333333 0 0 1-85.333333-85.333333V213.333333a85.333333 85.333333 0 0 1 85.333333-85.333333h597.333334z m0 64H213.333333a21.333333 21.333333 0 0 0-21.333333 21.333333v597.333334a21.333333 21.333333 0 0 0 21.333333 21.333333h597.333334a21.333333 21.333333 0 0 0 21.333333-21.333333V213.333333a21.333333 21.333333 0 0 0-21.333333-21.333333z" fill="#323847" p-id="3209"></path><path d="M533.248 426.666667c15.722667 0 28.458667 12.416 28.458667 27.733333v194.133333h28.437333c15.701333 0 28.437333 12.416 28.437333 27.733334 0 15.317333-12.736 27.733333-28.437333 27.733333H476.373333c-15.722667 0-28.458667-12.416-28.458666-27.733333 0-15.317333 12.736-27.733333 28.458666-27.733334h28.437334v-166.4H476.373333c-15.722667 0-28.458667-12.416-28.458666-27.733333 0-15.317333 12.736-27.733333 28.458666-27.733333h56.874667zM511.914667 320a42.666667 42.666667 0 1 1 0 85.333333 42.666667 42.666667 0 0 1 0-85.333333z" fill="#323847" p-id="3210"></path></svg>